<svg width="347" height="151" viewBox="0 0 347 151" fill="none" xmlns="http://www.w3.org/2000/svg">
<path fill-rule="evenodd" clip-rule="evenodd" d="M128.702 118.634C116.139 133.876 97.1134 143.593 75.8187 143.593C37.9872 143.593 7.31866 112.924 7.31866 75.0928C7.31866 37.2613 37.9872 6.59277 75.8187 6.59277C101.911 6.59277 124.596 21.181 136.162 42.6461C138.393 42.2267 140.717 41.9993 143.115 41.9454C130.878 17.1494 105.34 0.0927734 75.8187 0.0927734C34.3973 0.0927734 0.818665 33.6714 0.818665 75.0928C0.818665 116.514 34.3973 150.093 75.8187 150.093C100.518 150.093 122.428 138.154 136.094 119.732C133.528 119.619 131.052 119.267 128.702 118.634ZM133.251 112.44C134.728 112.662 136.303 112.773 137.976 112.773C138.918 112.773 139.838 112.74 140.738 112.674C141.836 110.781 142.853 108.837 143.786 106.844H136.531C135.525 108.765 134.429 110.632 133.251 112.44ZM146.146 48.9754C145.525 48.947 144.892 48.9328 144.248 48.9328C142.504 48.9328 140.845 49.0345 139.271 49.238C140.274 51.6962 141.138 54.2257 141.854 56.8169C142.592 56.7501 143.353 56.7168 144.136 56.7168C145.766 56.7168 147.264 56.8224 148.63 57.0337C147.951 54.2847 147.119 51.5955 146.146 48.9754Z" fill="#6D56FF"/>
<path d="M337.931 111.093V80.2368C337.931 76.8768 337.613 73.7968 336.979 70.9968C336.344 68.1594 335.317 65.6954 333.899 63.6048C332.517 61.4768 330.707 59.8341 328.467 58.6768C326.264 57.5194 323.576 56.9408 320.403 56.9408C317.491 56.9408 314.915 57.4448 312.675 58.4528C310.472 59.4608 308.605 60.9168 307.075 62.8208C305.581 64.6874 304.443 66.9648 303.659 69.6528C302.875 72.3408 302.483 75.4021 302.483 78.8368L296.659 77.5488C296.659 71.3514 297.741 66.1434 299.907 61.9248C302.072 57.7061 305.059 54.5141 308.867 52.3488C312.675 50.1834 317.043 49.1008 321.971 49.1008C325.592 49.1008 328.747 49.6608 331.435 50.7808C334.16 51.9008 336.456 53.4128 338.323 55.3168C340.227 57.2208 341.757 59.4048 342.915 61.8688C344.072 64.2954 344.912 66.8901 345.435 69.6528C345.957 72.3781 346.219 75.1034 346.219 77.8288V111.093H337.931ZM294.195 111.093V30.4528H301.643V75.9808H302.483V111.093H294.195Z" fill="white"/>
<path d="M282.335 111.093C278.938 111.802 275.578 112.082 272.255 111.933C268.97 111.783 266.02 111.074 263.407 109.805C260.831 108.535 258.871 106.557 257.527 103.869C256.444 101.629 255.847 99.3701 255.735 97.0928C255.66 94.7781 255.623 92.1461 255.623 89.1967V33.8127H263.799V88.8607C263.799 91.3994 263.818 93.5274 263.855 95.2448C263.93 96.9248 264.322 98.4181 265.031 99.7247C266.375 102.226 268.503 103.719 271.415 104.205C274.364 104.69 278.004 104.578 282.335 103.869V111.093ZM242.687 57.6687V50.6127H282.335V57.6687H242.687Z" fill="white"/>
<path d="M206.035 112.605C202.414 112.605 199.24 112.045 196.515 110.925C193.827 109.805 191.531 108.293 189.627 106.389C187.76 104.485 186.248 102.319 185.091 99.8928C183.934 97.4288 183.094 94.8341 182.571 92.1088C182.048 89.3461 181.787 86.6021 181.787 83.8768V50.6128H190.075V81.4688C190.075 84.7915 190.392 87.8715 191.027 90.7088C191.662 93.5461 192.67 96.0288 194.051 98.1568C195.47 100.247 197.28 101.871 199.483 103.029C201.723 104.186 204.43 104.765 207.603 104.765C210.515 104.765 213.072 104.261 215.275 103.253C217.515 102.245 219.382 100.807 220.875 98.9408C222.406 97.0368 223.563 94.7408 224.347 92.0528C225.131 89.3275 225.523 86.2661 225.523 82.8688L231.347 84.1568C231.347 90.3541 230.264 95.5621 228.099 99.7808C225.934 103.999 222.947 107.191 219.139 109.357C215.331 111.522 210.963 112.605 206.035 112.605ZM226.363 111.093V96.1968H225.523V50.6128H233.755V111.093H226.363Z" fill="white"/>
<path d="M137.977 112.773C133.422 112.773 129.595 111.951 126.496 110.309C123.435 108.666 121.139 106.482 119.608 103.757C118.078 101.031 117.312 98.0634 117.312 94.8527C117.312 91.5674 117.966 88.7674 119.272 86.4527C120.616 84.1007 122.427 82.1781 124.704 80.6847C127.019 79.1914 129.689 78.0527 132.713 77.2687C135.774 76.5221 139.152 75.8687 142.848 75.3087C146.582 74.7114 150.222 74.2074 153.768 73.7967C157.352 73.3487 160.488 72.9194 163.176 72.5087L160.265 74.3007C160.377 68.3274 159.219 63.9034 156.792 61.0287C154.366 58.1541 150.147 56.7167 144.136 56.7167C139.992 56.7167 136.483 57.6501 133.608 59.5167C130.771 61.3834 128.774 64.3327 127.616 68.3647L119.608 66.0127C120.99 60.5994 123.771 56.3994 127.952 53.4127C132.134 50.4261 137.566 48.9327 144.248 48.9327C149.774 48.9327 154.459 49.9781 158.304 52.0687C162.187 54.1221 164.931 57.1087 166.536 61.0287C167.283 62.7834 167.768 64.7434 167.993 66.9087C168.216 69.0741 168.328 71.2767 168.328 73.5167V111.093H160.993V95.9167L163.12 96.8127C161.067 102.002 157.875 105.959 153.545 108.685C149.214 111.41 144.025 112.773 137.977 112.773ZM138.928 105.661C142.774 105.661 146.134 104.97 149.008 103.589C151.883 102.207 154.198 100.322 155.952 97.9327C157.707 95.5061 158.846 92.7807 159.368 89.7567C159.817 87.8154 160.059 85.6874 160.096 83.3727C160.134 81.0207 160.152 79.2661 160.152 78.1087L163.288 79.7327C160.488 80.1061 157.446 80.4794 154.16 80.8527C150.912 81.2261 147.702 81.6554 144.528 82.1407C141.392 82.6261 138.555 83.2047 136.017 83.8767C134.299 84.3621 132.638 85.0527 131.033 85.9487C129.427 86.8074 128.102 87.9647 127.056 89.4207C126.048 90.8767 125.544 92.6874 125.544 94.8527C125.544 96.6074 125.974 98.3061 126.832 99.9487C127.728 101.591 129.147 102.954 131.088 104.037C133.067 105.119 135.68 105.661 138.928 105.661Z" fill="white"/>
<path d="M95.6519 39.1328V29.8928H103.884V39.1328H95.6519ZM95.6519 111.093V50.6128H103.884V111.093H95.6519Z" fill="white"/>
<path d="M54.1725 111.093V50.6128H61.5645V65.1728L60.1085 63.2688C60.7805 61.4768 61.6578 59.8341 62.7405 58.3408C63.8232 56.8101 64.9992 55.5594 66.2685 54.5888C67.8365 53.2074 69.6658 52.1621 71.7565 51.4528C73.8472 50.7061 75.9565 50.2768 78.0845 50.1648C80.2125 50.0154 82.1538 50.1648 83.9085 50.6128V58.3408C81.7058 57.7808 79.2978 57.6501 76.6845 57.9488C74.0712 58.2474 71.6632 59.2928 69.4605 61.0848C67.4445 62.6528 65.9325 64.5381 64.9245 66.7408C63.9165 68.9061 63.2445 71.2208 62.9085 73.6848C62.5725 76.1114 62.4045 78.5194 62.4045 80.9088V111.093H54.1725Z" fill="white"/>
</svg>
