<svg width="200" height="200" viewBox="0 0 200 200" fill="none" xmlns="http://www.w3.org/2000/svg">
<mask id="path-1-inside-1_1136_469" fill="white">
<path d="M159.746 145.337C149.938 158.262 136.204 167.658 120.603 172.115C105.002 176.572 88.3767 175.85 73.2213 170.056C58.0658 164.263 45.1976 153.712 36.5476 139.985C27.8976 126.258 23.9322 110.096 25.2465 93.9248C26.5607 77.7532 33.0837 62.4439 43.8368 50.294C54.5898 38.144 68.9929 29.8088 84.8849 26.5389C100.777 23.269 117.301 25.2408 131.977 32.1585C146.653 39.0761 158.691 50.5666 166.283 64.9056L150.545 73.2382C144.755 62.3037 135.576 53.5415 124.385 48.2663C113.193 42.9912 100.592 41.4875 88.4737 43.981C76.355 46.4746 65.3717 52.8307 57.1718 62.0959C48.9719 71.361 43.9977 83.0354 42.9955 95.3673C41.9933 107.699 45.0171 120.024 51.6133 130.491C58.2096 140.959 68.0224 149.005 79.5794 153.423C91.1365 157.84 103.814 158.391 115.711 154.992C127.608 151.593 138.081 144.428 145.56 134.572L159.746 145.337Z"/>
</mask>
<path d="M159.746 145.337C149.938 158.262 136.204 167.658 120.603 172.115C105.002 176.572 88.3767 175.85 73.2213 170.056C58.0658 164.263 45.1976 153.712 36.5476 139.985C27.8976 126.258 23.9322 110.096 25.2465 93.9248C26.5607 77.7532 33.0837 62.4439 43.8368 50.294C54.5898 38.144 68.9929 29.8088 84.8849 26.5389C100.777 23.269 117.301 25.2408 131.977 32.1585C146.653 39.0761 158.691 50.5666 166.283 64.9056L150.545 73.2382C144.755 62.3037 135.576 53.5415 124.385 48.2663C113.193 42.9912 100.592 41.4875 88.4737 43.981C76.355 46.4746 65.3717 52.8307 57.1718 62.0959C48.9719 71.361 43.9977 83.0354 42.9955 95.3673C41.9933 107.699 45.0171 120.024 51.6133 130.491C58.2096 140.959 68.0224 149.005 79.5794 153.423C91.1365 157.84 103.814 158.391 115.711 154.992C127.608 151.593 138.081 144.428 145.56 134.572L159.746 145.337Z" stroke="#6D56FF" stroke-width="22" mask="url(#path-1-inside-1_1136_469)"/>
</svg>
